<svg xmlns="http://www.w3.org/2000/svg"><symbol id="icon-colab-logo" viewBox="0 0 512 512"><path fill="#333" d="M0 0h512v512H0z"/><g fill="#FFF"><path d="M77.4 298c-23.2 0-40.6-18.1-40.6-41.1 0-22.8 17-41.4 41.1-41.4 14.7 0 23.6 5.1 31.2 12.4l-9 10.4c-6.4-5.9-13.2-9.9-22.3-9.9-15.3 0-26.3 12.5-26.3 28.3 0 15.7 11.1 28.5 26.3 28.5 9.8 0 16.1-4 22.9-10.4l9 9.1c-8.3 8.6-17.4 14.1-32.3 14.1M157.4 228.4c-15.8 0-26.9 12.6-26.9 28.3 0 15.6 11.3 28.5 27.1 28.5s26.9-12.6 26.9-28.3c0-15.7-11.3-28.5-27.1-28.5m0 69.6c-24.5 0-41.6-18.6-41.6-41.1 0-22.6 17.3-41.4 41.8-41.4 24.5 0 41.6 18.6 41.6 41.1 0 22.6-17.3 41.4-41.8 41.4M237.4 252.2h-8v-8h-9v8h-8v9h8v8h9v-8h8zM250.9 217.1h14v67h41.9v12.8h-55.9zM356.9 233.3l-13.7 31.9h27.5l-13.8-31.9zm41.8 63.6h-14.8l-8.1-19.3h-37.7l-8.2 19.3h-14.4l35.1-80.3h13l35.1 80.3zM459.8 273.4c0-6.8-5.4-10.8-16.4-10.8h-22.2v21.9h23.2c9.6 0 15.4-3.8 15.4-11.1m-4.4-33.6c0-6.5-5-10.3-14-10.3h-20.2v21.2h19.1c9 0 15.1-3.5 15.1-10.9m14-2.3c0 9.8-5.5 14.8-11.4 17.9 9.3 3.2 15.8 8.5 15.8 19.5 0 14.4-11.7 22-29.5 22h-36.9v-79.8h35.8c16 0 26.2 7.9 26.2 20.4"/></g></symbol></svg>